<svg width="29" height="17" viewBox="0 0 29 17" fill="none" xmlns="http://www.w3.org/2000/svg">
<path d="M28 0C28.3681 0 28.6667 0.362551 28.6667 0.809524V16.1905C28.6667 16.6374 28.3681 17 28 17H0.666667C0.298572 17 0 16.6374 0 16.1905V0.809524C0 0.362551 0.298572 0 0.666667 0H28ZM28 0.809524H0.666667V16.1905H28V0.809524ZM10.3333 5.85714V12.1429H9.66667V5.85714H10.3333ZM6 5.85714V12.1429H5.33333V5.85714H6ZM19 5.85714V12.1429H18.3333V5.85714H19ZM14.6667 5.85714V12.1429H14V5.85714H14.6667ZM23.3333 5.85714V8.5V12.1429H22.6667V5.85714H23.3333Z" fill="#545454"/>
</svg>
