<svg width="30" height="15" viewBox="0 0 30 15" fill="none" xmlns="http://www.w3.org/2000/svg">
<path d="M28.6666 0.333008C29.0347 0.333008 29.3333 0.63158 29.3333 0.999674V13.6663C29.3333 14.0344 29.0347 14.333 28.6666 14.333H1.33329C0.965198 14.333 0.666626 14.0344 0.666626 13.6663V0.999674C0.666626 0.63158 0.965198 0.333008 1.33329 0.333008H28.6666ZM28.6666 0.999674H1.33329V13.6663H28.6666V0.999674ZM11 4.33301V10.333H10.3333V4.33301H11ZM6.66663 4.33301V10.333H5.99996V4.33301H6.66663ZM19.6666 4.33301V10.333H19V4.33301H19.6666ZM15.3333 4.33301V10.333H14.6666V4.33301H15.3333ZM24 4.33301V10.333H23.3333V4.33301H24Z" fill="#545454"/>
</svg>
