<svg width="32" height="17" viewBox="0 0 32 17" fill="none" xmlns="http://www.w3.org/2000/svg">
<path d="M31.3191 0C31.6951 0 32 0.298572 32 0.666667V16.3333C32 16.7014 31.6951 17 31.3191 17H0.680851C0.304924 17 0 16.7014 0 16.3333V0.666667C0 0.298572 0.304924 0 0.680851 0H31.3191ZM31.3191 0.666667H0.680851V16.3333H31.3191V0.666667ZM9.80419 5.5V11.5H9.12334V5.5H9.80419ZM14.1616 5.5V11.5H13.4807V5.5H14.1616ZM5.44681 5.5V11.5H4.76596V5.5H5.44681ZM18.5193 5.5V11.5H17.8384V5.5H18.5193ZM22.8767 5.5V11.5H22.1958V5.5H22.8767ZM27.234 5.5V11.5H26.5532V5.5H27.234Z" fill="#545454"/>
</svg>
